<svg width="19" height="20" viewBox="0 0 19 20" fill="none" xmlns="http://www.w3.org/2000/svg">
<path d="M9.60602 0C12.286 0 14.4892 2.10591 14.6011 4.77432H14.5749C14.5781 4.85189 14.5632 4.92913 14.5314 5H14.6875C15.9045 5 17.1789 5.84351 17.6899 7.8798L17.7454 8.12007L18.5143 14.3147C19.0677 18.2657 16.906 19.9273 13.9573 19.9977L13.7595 20H5.4696C2.47285 20 0.163619 18.908 0.671355 14.5836L0.705979 14.3147L1.48371 8.12007C1.86721 5.92719 3.15468 5.06225 4.39519 5.00326L4.53279 5H4.61096C4.59778 4.92535 4.59778 4.84898 4.61096 4.77432C4.7228 2.10591 6.92607 0 9.60602 0ZM6.69807 8.32929C6.20997 8.32929 5.81428 8.73655 5.81428 9.23893C5.81428 9.74131 6.20997 10.1486 6.69807 10.1486C7.18617 10.1486 7.58186 9.74131 7.58186 9.23893L7.57497 9.12483C7.52044 8.67631 7.14863 8.32929 6.69807 8.32929ZM12.4869 8.32929C11.9988 8.32929 11.6031 8.73655 11.6031 9.23893C11.6031 9.74131 11.9988 10.1486 12.4869 10.1486C12.975 10.1486 13.3707 9.74131 13.3707 9.23893C13.3707 8.73655 12.975 8.32929 12.4869 8.32929ZM9.56682 1.30238C7.64271 1.30238 6.08291 2.85682 6.08291 4.77432C6.0961 4.84898 6.0961 4.92535 6.08291 5H13.0943C13.0665 4.92794 13.0517 4.85153 13.0507 4.77432C13.0507 2.85682 11.4909 1.30238 9.56682 1.30238Z" fill="black"/>
</svg>
