<svg width="55" height="21" viewBox="0 0 55 21" fill="none" xmlns="http://www.w3.org/2000/svg">
<g clip-path="url(#clip0_1_872)">
<path d="M12.9622 0C10.83 0 8.78506 0.847035 7.27733 2.35477L2.35673 7.27538C0.848988 8.78311 0.00195312 10.828 0.00195312 12.9603C0.00195312 17.4005 3.60145 21 8.04166 21C10.1739 21 12.2188 20.1529 13.7266 18.6452L17.1302 15.2416C17.1302 15.2415 17.1303 15.2417 17.1302 15.2416L27.0472 5.32462C27.7672 4.60454 28.7439 4.2 29.7622 4.2C31.4672 4.2 32.9126 5.31119 33.4137 6.84885L36.5435 3.71907C35.1157 1.48284 32.6122 0 29.7622 0C27.63 0 25.5851 0.847035 24.0773 2.35477L10.7568 15.6754C10.0367 16.3955 9.06002 16.8 8.04166 16.8C5.92104 16.8 4.20195 15.0809 4.20195 12.9603C4.20195 11.9419 4.60649 10.9653 5.32657 10.2452L10.2472 5.32462C10.9672 4.60454 11.9439 4.2 12.9622 4.2C14.6672 4.2 16.1126 5.31124 16.6137 6.84895L19.7436 3.71915C18.3158 1.48288 15.8122 0 12.9622 0Z" fill="black"/>
<path d="M27.5571 15.6754C26.837 16.3955 25.8604 16.8 24.842 16.8C23.1373 16.8 21.692 15.6891 21.1907 14.1517L18.061 17.2814C19.4889 19.5173 21.9923 21 24.842 21C26.9743 21 29.0192 20.1529 30.5269 18.6452L43.8475 5.32462C44.5676 4.60454 45.5442 4.2 46.5626 4.2C48.6832 4.2 50.4023 5.91909 50.4023 8.03971C50.4023 9.05807 49.9978 10.0347 49.2777 10.7548L44.3571 15.6754C43.637 16.3955 42.6604 16.8 41.642 16.8C39.9372 16.8 38.4918 15.6889 37.9906 14.1513L34.8609 17.2811C36.2887 19.5173 38.7922 21 41.642 21C43.7743 21 45.8192 20.1529 47.3269 18.6452L52.2475 13.7246C53.7552 12.2169 54.6023 10.172 54.6023 8.03971C54.6023 3.5995 51.0028 0 46.5626 0C44.4303 0 42.3854 0.847035 40.8777 2.35477L27.5571 15.6754Z" fill="black"/>
</g>
<defs>
<clipPath id="clip0_1_872">
<rect width="54.6" height="21" fill="white" transform="translate(0.000976562)"/>
</clipPath>
</defs>
</svg>
