<svg width="21" height="20" viewBox="0 0 21 20" fill="none" xmlns="http://www.w3.org/2000/svg">
<path d="M10.6011 10C9.22607 10 8.04899 9.51042 7.06982 8.53125C6.09066 7.55208 5.60107 6.375 5.60107 5C5.60107 3.625 6.09066 2.44792 7.06982 1.46875C8.04899 0.489584 9.22607 0 10.6011 0C11.9761 0 13.1532 0.489584 14.1323 1.46875C15.1115 2.44792 15.6011 3.625 15.6011 5C15.6011 6.375 15.1115 7.55208 14.1323 8.53125C13.1532 9.51042 11.9761 10 10.6011 10ZM0.601074 20V16.5C0.601074 15.7917 0.783574 15.1404 1.14857 14.5463C1.51357 13.9521 1.99774 13.4992 2.60107 13.1875C3.89274 12.5417 5.20524 12.0571 6.53857 11.7338C7.87191 11.4104 9.22607 11.2492 10.6011 11.25C11.9761 11.25 13.3302 11.4117 14.6636 11.735C15.9969 12.0583 17.3094 12.5425 18.6011 13.1875C19.2052 13.5 19.6898 13.9533 20.0548 14.5475C20.4198 15.1417 20.6019 15.7925 20.6011 16.5V20H0.601074Z" fill="black"/>
</svg>
