<svg width="27" height="25" viewBox="0 0 27 25" fill="none" xmlns="http://www.w3.org/2000/svg">
<path d="M13.1168 14.5H14.2001C15.3918 14.5 16.3668 13.6 16.3668 12.5V2.5H6.61676C4.99176 2.5 3.5726 3.32999 2.83594 4.54999" stroke="#B9B9B9" stroke-width="1.5" stroke-linecap="round" stroke-linejoin="round"/>
<path d="M2.2832 17.5C2.2832 19.16 3.73487 20.5 5.5332 20.5H6.61654C6.61654 19.4 7.59154 18.5 8.7832 18.5C9.97487 18.5 10.9499 19.4 10.9499 20.5H15.2832C15.2832 19.4 16.2582 18.5 17.4499 18.5C18.6415 18.5 19.6165 19.4 19.6165 20.5H20.6999C22.4982 20.5 23.9499 19.16 23.9499 17.5V14.5H20.6999C20.104 14.5 19.6165 14.05 19.6165 13.5V10.5C19.6165 9.95 20.104 9.5 20.6999 9.5H22.0973L20.2449 6.51001C19.8549 5.89001 19.1399 5.5 18.3599 5.5H16.3665V12.5C16.3665 13.6 15.3915 14.5 14.1999 14.5H13.1165" stroke="#B9B9B9" stroke-width="1.5" stroke-linecap="round" stroke-linejoin="round"/>
<path d="M8.78337 22.5C9.97998 22.5 10.95 21.6046 10.95 20.5C10.95 19.3954 9.97998 18.5 8.78337 18.5C7.58675 18.5 6.6167 19.3954 6.6167 20.5C6.6167 21.6046 7.58675 22.5 8.78337 22.5Z" stroke="#B9B9B9" stroke-width="1.5" stroke-linecap="round" stroke-linejoin="round"/>
<path d="M17.4499 22.5C18.6465 22.5 19.6165 21.6046 19.6165 20.5C19.6165 19.3954 18.6465 18.5 17.4499 18.5C16.2533 18.5 15.2832 19.3954 15.2832 20.5C15.2832 21.6046 16.2533 22.5 17.4499 22.5Z" stroke="#B9B9B9" stroke-width="1.5" stroke-linecap="round" stroke-linejoin="round"/>
<path d="M23.95 12.5V14.5H20.7C20.1042 14.5 19.6167 14.05 19.6167 13.5V10.5C19.6167 9.95 20.1042 9.5 20.7 9.5H22.0975L23.95 12.5Z" stroke="#B9B9B9" stroke-width="1.5" stroke-linecap="round" stroke-linejoin="round"/>
<path d="M2.2832 8.5H8.7832" stroke="#B9B9B9" stroke-width="1.5" stroke-linecap="round" stroke-linejoin="round"/>
<path d="M2.2832 11.5H6.61654" stroke="#B9B9B9" stroke-width="1.5" stroke-linecap="round" stroke-linejoin="round"/>
<path d="M2.2832 14.5H4.44987" stroke="#B9B9B9" stroke-width="1.5" stroke-linecap="round" stroke-linejoin="round"/>
</svg>
