<svg width="21" height="19" viewBox="0 0 21 19" fill="none" xmlns="http://www.w3.org/2000/svg">
<path d="M10.085 0.958984C10.2286 0.534462 10.8006 0.507655 10.998 0.878906L11.0322 0.958984L12.6611 5.77246C12.8673 6.38154 13.439 6.79188 14.082 6.79199H19.2646C19.7234 6.79199 19.9264 7.34566 19.6191 7.64551L19.5508 7.70215L15.4297 10.5771C14.9165 10.9351 14.6828 11.57 14.832 12.1689L14.8662 12.2881L16.457 16.9883C16.6019 17.4167 16.1559 17.7853 15.7734 17.6025L15.6973 17.5586L11.417 14.5723C10.9335 14.2351 10.3009 14.2146 9.79883 14.5098L9.7002 14.5723L5.41992 17.5586C5.04898 17.8173 4.56998 17.4915 4.63867 17.0732L4.66016 16.9883L6.25098 12.2881C6.45147 11.6957 6.26218 11.0459 5.78711 10.6523L5.6875 10.5771L1.56641 7.70215C1.16509 7.42224 1.36325 6.79199 1.85254 6.79199H7.03516C7.63792 6.79189 8.17806 6.43159 8.41309 5.88477L8.45605 5.77246L10.085 0.958984Z" stroke="#3D3D3D"/>
</svg>
