<svg width="27" height="27" viewBox="0 0 27 27" fill="none" xmlns="http://www.w3.org/2000/svg">
<path d="M7.375 10.5317L13.1167 13.8575L18.815 10.5533" stroke="#B9B9B9" stroke-width="1.5" stroke-linecap="round" stroke-linejoin="round"/>
<path d="M13.1167 19.7508V13.8467" stroke="#B9B9B9" stroke-width="1.5" stroke-linecap="round" stroke-linejoin="round"/>
<path d="M11.7732 7.31415L8.30647 9.24249C7.52647 9.67582 6.87646 10.77 6.87646 11.6692V15.3416C6.87646 16.2408 7.51564 17.335 8.30647 17.7683L11.7732 19.6967C12.5098 20.1083 13.7231 20.1083 14.4706 19.6967L17.9373 17.7683C18.7173 17.335 19.3673 16.2408 19.3673 15.3416V11.6583C19.3673 10.7592 18.7282 9.66498 17.9373 9.23165L14.4706 7.30332C13.7231 6.89165 12.5098 6.89165 11.7732 7.31415Z" stroke="#B9B9B9" stroke-width="1.5" stroke-linecap="round" stroke-linejoin="round"/>
<path d="M23.95 16.75C23.95 20.9425 20.5592 24.3333 16.3667 24.3333L17.5042 22.4375" stroke="#B9B9B9" stroke-width="1.5" stroke-linecap="round" stroke-linejoin="round"/>
<path d="M2.2832 10.25C2.2832 6.05752 5.67404 2.66669 9.86654 2.66669L8.72905 4.56252" stroke="#B9B9B9" stroke-width="1.5" stroke-linecap="round" stroke-linejoin="round"/>
</svg>
