<svg width="17" height="17" viewBox="0 0 17 17" fill="none" xmlns="http://www.w3.org/2000/svg">
<path d="M8.74737 2.45953C8.48883 2.01396 7.84537 2.01396 7.58682 2.45953L5.76598 5.59751C5.63826 5.81762 5.4175 5.96783 5.16587 6.00583L1.7535 6.52123C1.18036 6.60779 0.979323 7.33143 1.42567 7.70122L3.96775 9.80731C4.20306 10.0023 4.3137 10.3098 4.25654 10.61L3.59157 14.1021C3.48646 14.6541 4.06597 15.083 4.5632 14.8212L7.77638 13.1293C8.02094 13.0005 8.31325 13.0005 8.55781 13.1293L11.771 14.8212C12.2682 15.083 12.8477 14.6541 12.7426 14.1021L12.0776 10.61C12.0205 10.3098 12.1311 10.0023 12.3664 9.80731L14.9085 7.70122C15.3549 7.33143 15.1538 6.60779 14.5807 6.52123L11.1683 6.00583C10.9167 5.96783 10.6959 5.81762 10.5682 5.59751L8.74737 2.45953Z" fill="#A6A6A6"/>
</svg>
